<?xml version="1.0" encoding="utf-8"?>
<!-- Generator: Adobe Illustrator 15.1.0, SVG Export Plug-In . SVG Version: 6.00 Build 0)  -->
<!DOCTYPE svg PUBLIC "-//W3C//DTD SVG 1.1//EN" "http://www.w3.org/Graphics/SVG/1.1/DTD/svg11.dtd">
<svg version="1.1" id="Layer_1" xmlns="http://www.w3.org/2000/svg" xmlns:xlink="http://www.w3.org/1999/xlink" x="0px" y="0px"
	 width="310px" height="230.67px" viewBox="0 0 310 230.67" enable-background="new 0 0 310 230.67" xml:space="preserve">
<g>
	<path d="M266.969,135.168c0,3.927-1.57,7.656-4.32,10.407c-2.75,2.75-6.678,4.319-10.407,4.319c-3.928,0-7.657-1.569-10.407-4.319
		c-2.751-2.751-4.32-6.48-4.32-10.407c0-3.73,1.569-7.658,4.32-10.408c2.75-2.75,6.479-4.32,10.407-4.32
		c3.729,0,7.657,1.57,10.407,4.32C265.396,127.51,266.969,131.438,266.969,135.168z"/>
	<path d="M70.887,135.168c0,3.927-1.569,7.656-4.32,10.407c-2.75,2.75-6.479,4.319-10.407,4.319s-7.657-1.569-10.407-4.319
		c-2.751-2.751-4.32-6.48-4.32-10.407c0-3.73,1.569-7.658,4.32-10.408c2.75-2.75,6.479-4.32,10.407-4.32s7.657,1.57,10.407,4.32
		C69.317,127.51,70.887,131.438,70.887,135.168z"/>
	<path d="M260.896,191.118l5.358-1.292c25.286-6.1,42.946-28.576,42.946-54.658c0-18.118-8.876-35.215-23.744-45.733l-6.776-4.795
		l12.693-12.693c3.02-3.162,3.044-7.968,0.048-10.964l-0.082-0.085c-1.424-1.472-3.332-2.282-5.375-2.282s-3.952,0.811-5.376,2.283
		l-0.082,0.084l-14.771,14.77l-29.071-51.63C228.445,9.223,212.735,0,195.636,0h-82.67C95.868,0,80.158,9.223,71.968,24.068
		L42.867,75.752l-14.771-14.77c-1.527-1.526-3.492-2.367-5.533-2.367c-1.994,0-3.877,0.811-5.301,2.283l-0.166,0.166
		c-1.456,1.407-2.267,3.269-2.283,5.241c-0.018,2.062,0.823,4.049,2.367,5.592l12.776,12.777l-6.845,4.783
		C8.14,99.92-0.8,117.009-0.8,135.168c0,26.251,17.8,48.722,43.286,54.645l5.415,1.259v12.237c0,15.087,12.274,27.361,27.361,27.361
		c15.088,0,27.362-12.274,27.362-27.361v-11.91h103.543v11.91c0,15.087,12.274,27.361,27.362,27.361
		c15.089,0,27.365-12.274,27.365-27.361V191.118z M85.294,31.532c5.791-10.067,16.134-16.077,27.668-16.077h82.671
		c11.491,0,22.042,6.205,27.535,16.194l26.634,47.485H58.849L85.294,31.532z M87.17,203.305c0,6.567-5.342,11.91-11.907,11.91
		c-6.567,0-11.91-5.343-11.91-11.91v-11.91H87.17V203.305z M245.44,203.305c0,6.567-5.342,11.91-11.907,11.91
		c-6.567,0-11.91-5.343-11.91-11.91v-11.91h23.817V203.305z M55.431,175.942c-22.245,0-40.536-18.258-40.775-40.7v-0.149
		c0.24-22.333,18.532-40.503,40.775-40.503h197.737c22.374,0,40.577,18.203,40.577,40.578c0,22.483-18.203,40.774-40.577,40.774
		H55.431z"/>
</g>
</svg>
