<?xml version="1.0" encoding="utf-8"?>
<!-- Generator: Adobe Illustrator 15.1.0, SVG Export Plug-In . SVG Version: 6.00 Build 0)  -->
<!DOCTYPE svg PUBLIC "-//W3C//DTD SVG 1.1//EN" "http://www.w3.org/Graphics/SVG/1.1/DTD/svg11.dtd">
<svg version="1.1" id="Layer_1" xmlns="http://www.w3.org/2000/svg" xmlns:xlink="http://www.w3.org/1999/xlink" x="0px" y="0px"
	 width="289.543px" height="289.254px" viewBox="0 0 289.543 289.254" enable-background="new 0 0 289.543 289.254"
	 xml:space="preserve">
<g>
	<path fill="none" d="M219.28,44.721c-26.29-1.345-44.036-17.191-44.775-17.863c-0.112-0.103-13.614-12.012-30.13-12.012h-0.004
		h-0.008c-10.292,0-15.968,4.872-18.205,7.374v68.79c4.737-2.313,10.737-4.04,18.205-4.04h0.008h0.004
		c22.473,0,39.592,15.292,40.312,15.943c0.123,0.112,14.638,12.894,35.372,13.954c16.742,0.905,26.855-6.146,30.657-9.467V38.247
		C243.326,42.099,232.899,45.41,219.28,44.721z"/>
	<path d="M260.857,16.144c-3.03-1.094-6.368-0.165-8.407,2.298c-0.104,0.122-10.711,12.285-32.392,11.145
		c-20.734-1.06-35.249-13.841-35.372-13.955c-0.72-0.65-17.839-15.939-40.312-15.939h-0.004h-0.008
		c-22.417,0-31.894,15.446-32.289,16.105c-0.7,1.175-1.071,2.515-1.071,3.881v106.917c3.253,2.241,8.487,5.37,15.155,7.752V109.51
		c2.223-2.497,7.875-7.384,18.205-7.384h0.008h0.004c16.516,0,30.018,11.908,30.13,12.015c0.739,0.671,18.485,16.515,44.775,17.86
		c1.226,0.066,2.428,0.098,3.603,0.098c17.958,0,29.943-7.028,36.176-11.979c3.818-0.388,6.806-3.579,6.806-7.498V23.273
		C265.864,20.079,263.863,17.228,260.857,16.144z M250.716,107.4c-3.802,3.322-13.915,10.372-30.657,9.467
		c-20.734-1.061-35.249-13.842-35.372-13.954c-0.72-0.652-17.839-15.943-40.312-15.943h-0.004h-0.008
		c-7.468,0-13.468,1.726-18.205,4.04v-68.79c2.237-2.501,7.913-7.374,18.205-7.374h0.008h0.004c16.516,0,30.018,11.909,30.13,12.012
		c0.739,0.672,18.485,16.518,44.775,17.863c13.619,0.689,24.046-2.622,31.436-6.475V107.4z"/>
	<path d="M141.851,152.842c13.619,0.689,24.043-2.622,31.433-6.476v69.153c-3.8,3.322-13.914,10.374-30.655,9.469
		c-20.735-1.062-35.249-13.842-35.373-13.954c-0.719-0.652-17.84-15.943-40.312-15.943H66.94h-0.007
		c-7.469,0-13.468,1.727-18.206,4.039v-68.79c2.238-2.5,7.912-7.373,18.206-7.373h0.007c0.005,0,0.005,0,0.005,0
		c16.516,0,30.018,11.909,30.129,12.012c0.387,0.353,5.439,4.86,13.929,9.271v-17.654c-2.382-1.643-3.71-2.809-3.747-2.843
		c-0.719-0.65-17.84-15.939-40.312-15.939H66.94h-0.007c-22.418,0-31.894,15.447-32.289,16.105
		c-0.701,1.175-1.071,2.515-1.071,3.881v153.734c0,4.181,3.393,7.575,7.576,7.575c4.183,0,7.578-3.395,7.578-7.575V217.63
		c2.223-2.496,7.877-7.385,18.206-7.385h0.007c0.005,0,0.005,0,0.005,0c16.516,0,30.018,11.909,30.129,12.017
		c0.74,0.669,18.485,16.515,44.777,17.86c1.227,0.064,2.425,0.096,3.603,0.096c17.957,0,29.943-7.026,36.176-11.978
		c3.818-0.388,6.803-3.578,6.803-7.497v-89.35c0-3.194-1.998-6.045-5.006-7.129c-3.03-1.094-6.367-0.165-8.405,2.297
		c-0.104,0.122-10.713,12.285-32.392,11.146c-6.101-0.312-11.656-1.642-16.472-3.361v15.907
		C130.938,151.59,136.195,152.554,141.851,152.842z"/>
	<path d="M111.003,144.25c4.243,2.203,9.342,4.381,15.155,6.005v-15.907c-6.667-2.382-11.902-5.511-15.155-7.752V144.25z"/>
</g>
</svg>
